<svg xmlns="http://www.w3.org/2000/svg" viewBox="0 0 300 200">
  <rect width="300" height="200" fill="white"/>
  <g transform="translate(40, 20) scale(1.8)">
    <!-- Background red border -->
    <rect x="10" y="10" width="120" height="80" fill="#E30613" rx="5" ry="5"/>
    <!-- White background -->
    <rect x="15" y="15" width="110" height="70" fill="white" rx="3" ry="3"/>
    <!-- Blue G symbol -->
    <path d="M95,30 C95,30 70,20 50,30 C30,40 25,70 45,80 C65,90 95,80 95,80 L95,60 L65,60 L65,50 L105,50 L105,90 C105,90 65,105 35,85 C5,65 15,25 40,15 C65,5 105,20 105,20 L95,30" 
          fill="#00AEEF"/>
  </g>
</svg> 